<svg width="72" height="72" viewBox="0 0 72 72" fill="none" xmlns="http://www.w3.org/2000/svg">
<rect width="72" height="72" fill="#E5E5E5"/>
<g clip-path="url(#clip0_0_1)">
<rect width="1440" height="6419" transform="translate(-355 -640)" fill="white"/>
<g clip-path="url(#clip1_0_1)" filter="url(#filter0_d_0_1)">
<path d="M36 71.5C55.6061 71.5 71.5 55.6061 71.5 36C71.5 16.3939 55.6061 0.5 36 0.5C16.3939 0.5 0.5 16.3939 0.5 36C0.5 55.6061 16.3939 71.5 36 71.5Z" fill="white" stroke="#DCDDEB"/>
<path d="M47.0856 53.3845C47.0732 53.3845 47.0609 53.3845 47.0485 53.3845C41.11 53.19 34.1529 47.4336 29.3595 42.6371C24.5599 37.8407 18.8035 30.8805 18.6183 24.9698C18.5504 22.8956 23.6402 19.2072 23.6926 19.1701C25.0137 18.2504 26.4798 18.5775 27.0817 19.4109C27.4891 19.9757 31.3473 25.8216 31.767 26.4853C32.2022 27.1736 32.1374 28.1983 31.5942 29.2261C31.2948 29.7971 30.3009 31.5441 29.8349 32.359C30.338 33.075 31.6683 34.8313 34.4153 37.5783C37.1654 40.3253 38.9186 41.6587 39.6377 42.1618C40.4526 41.6957 42.1996 40.7019 42.7706 40.4025C43.7829 39.8654 44.8015 39.7975 45.496 40.2235C46.2059 40.6587 52.0364 44.5354 52.5734 44.9088C53.0241 45.2268 53.3142 45.77 53.3728 46.4027C53.4284 47.0416 53.2309 47.7176 52.8204 48.3071C52.7864 48.3565 49.1412 53.3845 47.0856 53.3845Z" fill="#0075FF"/>
</g>
</g>
<defs>
<filter id="filter0_d_0_1" x="-10" y="-6" width="92" height="92" filterUnits="userSpaceOnUse" color-interpolation-filters="sRGB">
<feFlood flood-opacity="0" result="BackgroundImageFix"/>
<feColorMatrix in="SourceAlpha" type="matrix" values="0 0 0 0 0 0 0 0 0 0 0 0 0 0 0 0 0 0 127 0" result="hardAlpha"/>
<feOffset dy="4"/>
<feGaussianBlur stdDeviation="5"/>
<feColorMatrix type="matrix" values="0 0 0 0 0.0784314 0 0 0 0 0.0784314 0 0 0 0 0.168627 0 0 0 0.04 0"/>
<feBlend mode="normal" in2="BackgroundImageFix" result="effect1_dropShadow_0_1"/>
<feBlend mode="normal" in="SourceGraphic" in2="effect1_dropShadow_0_1" result="shape"/>
</filter>
<clipPath id="clip0_0_1">
<rect width="1440" height="6419" fill="white" transform="translate(-355 -640)"/>
</clipPath>
<clipPath id="clip1_0_1">
<rect width="72" height="72" fill="white"/>
</clipPath>
</defs>
</svg>
