<svg width="72" height="73" viewBox="0 0 72 73" fill="none" xmlns="http://www.w3.org/2000/svg">
<rect width="72" height="73" fill="#E5E5E5"/>
<g clip-path="url(#clip0_0_1)">
<rect width="1440" height="6419" transform="translate(-110 -5032)" fill="white"/>
<path d="M-112 -402H1328V749H-112V-402Z" fill="#F7F9FC"/>
<g clip-path="url(#clip1_0_1)" filter="url(#filter0_d_0_1)">
<path d="M35.9711 71.9375C55.5615 71.9375 71.4427 56.0436 71.4427 36.4375C71.4427 16.8314 55.5615 0.9375 35.9711 0.9375C16.3807 0.9375 0.499596 16.8314 0.499596 36.4375C0.499596 56.0436 16.3807 71.9375 35.9711 71.9375Z" fill="white" stroke="#DCDDEB"/>
<path d="M47.0479 53.822C47.0355 53.822 47.0232 53.822 47.0108 53.822C41.0771 53.6275 34.1255 47.8711 29.336 43.0746C24.5402 38.2782 18.7884 31.318 18.6034 25.4073C18.5355 23.3331 23.6213 19.6447 23.6736 19.6076C24.9937 18.6879 26.4586 19.015 27.06 19.8484C27.4671 20.4132 31.3222 26.2591 31.7415 26.9228C32.1764 27.6111 32.1116 28.6358 31.5689 29.6636C31.2697 30.2346 30.2766 31.9816 29.811 32.7965C30.3137 33.5125 31.6429 35.2688 34.3877 38.0158C37.1356 40.7628 38.8874 42.0962 39.6059 42.5993C40.4202 42.1332 42.1658 41.1394 42.7363 40.84C43.7478 40.3029 44.7656 40.235 45.4595 40.661C46.1689 41.0962 51.9947 44.9729 52.5313 45.3463C52.9816 45.6643 53.2715 46.2075 53.33 46.8402C53.3856 47.4791 53.1882 48.1551 52.7781 48.7446C52.7441 48.794 49.1018 53.822 47.0479 53.822Z" fill="#0075FF"/>
</g>
</g>
<defs>
<filter id="filter0_d_0_1" x="-10" y="-5.5625" width="91.9423" height="92" filterUnits="userSpaceOnUse" color-interpolation-filters="sRGB">
<feFlood flood-opacity="0" result="BackgroundImageFix"/>
<feColorMatrix in="SourceAlpha" type="matrix" values="0 0 0 0 0 0 0 0 0 0 0 0 0 0 0 0 0 0 127 0" result="hardAlpha"/>
<feOffset dy="4"/>
<feGaussianBlur stdDeviation="5"/>
<feColorMatrix type="matrix" values="0 0 0 0 0.0784314 0 0 0 0 0.0784314 0 0 0 0 0.168627 0 0 0 0.04 0"/>
<feBlend mode="normal" in2="BackgroundImageFix" result="effect1_dropShadow_0_1"/>
<feBlend mode="normal" in="SourceGraphic" in2="effect1_dropShadow_0_1" result="shape"/>
</filter>
<clipPath id="clip0_0_1">
<rect width="1440" height="6419" fill="white" transform="translate(-110 -5032)"/>
</clipPath>
<clipPath id="clip1_0_1">
<rect width="71.9423" height="72" fill="white" transform="translate(0 0.4375)"/>
</clipPath>
</defs>
</svg>
